<svg width="24" height="24" viewBox="0 0 24 24" fill="none" xmlns="http://www.w3.org/2000/svg">
<path fill-rule="evenodd" clip-rule="evenodd" d="M17.9932 12.07C17.5078 12.1986 17.007 12.3159 16.4905 12.4143V12.7776V13.8975V15.377V16.8564V18.7369V22.3692V23.9962L17.9932 22.9935L19.4959 21.9909L20.9985 20.992L22.5012 19.9931V18.3623V15.0213V13.4094V11.7749C22.0314 12.0473 21.5305 12.3008 20.9985 12.5354C20.5171 12.7473 20.0162 12.9403 19.4959 13.1181V14.6391C20.0123 14.4726 20.5132 14.2948 20.9985 14.0981V15.6532V19.365L19.492 20.3639L17.9893 21.3628V16.5537V15.0591V13.5646V12.7738V12.07H17.9932ZM16.4905 8.04793C17.0303 7.94198 17.5311 7.82469 17.9932 7.68848V7.03768V5.21772V3.59073V3.25398V1.82753C18.5329 1.98644 19.0377 2.16806 19.4959 2.36481C19.5658 2.3913 19.6279 2.42157 19.6939 2.45184C20.1831 2.67508 20.6219 2.92102 20.9985 3.18209C21.0063 3.18587 21.0102 3.18966 21.018 3.19723C21.9576 3.85937 22.4973 4.63881 22.4973 5.47123C22.4973 6.30743 21.9498 7.09065 20.9947 7.76037C20.5675 8.0555 20.0628 8.3317 19.492 8.57765C19.0338 8.7744 18.529 8.95223 17.9893 9.11493C17.5156 9.25493 17.0147 9.37601 16.4867 9.48573C16.0052 9.58033 15.5043 9.66357 14.984 9.72789C14.0366 9.84897 13.0348 9.90951 11.9942 9.90951C10.9536 9.90951 9.95179 9.84897 9.00437 9.72789V11.1884C9.95955 11.3095 10.9613 11.3738 11.9942 11.3738C13.0231 11.3738 14.0249 11.3095 14.984 11.1884C15.5004 11.1241 16.0013 11.0408 16.4867 10.9462C17.007 10.8403 17.5078 10.723 17.9893 10.583C18.5174 10.4354 19.0183 10.2652 19.492 10.0798C20.0356 9.86789 20.5365 9.6333 20.9947 9.37601C21.5693 9.05439 22.0741 8.70629 22.4973 8.3317C23.4564 7.48416 24 6.51175 24 5.47123C24 4.43071 23.4564 3.4583 22.4973 2.61075C22.4119 2.53508 22.3226 2.4594 22.2333 2.38751C21.8722 2.09617 21.4645 1.82753 21.0102 1.57402L20.9985 1.58159V1.56645C20.5404 1.30916 20.0356 1.07457 19.4959 0.862683C19.2474 0.764307 18.9833 0.673498 18.7193 0.58269C18.4824 0.503232 18.2417 0.431342 17.9971 0.359451C17.5117 0.223238 17.0108 0.10216 16.4905 0V0.58269V1.46051V2.89453V3.58695V4.58584V6.21283V6.57985V7.39335V8.04793ZM4.50413 10.076C3.96441 9.8641 3.45963 9.62951 3.00146 9.37222C2.42679 9.05061 1.92202 8.70251 1.49879 8.32792C0.543601 7.48416 0 6.50796 0 5.47123C0 4.43071 0.543601 3.4583 1.50267 2.61075C1.58809 2.53508 1.6774 2.4594 1.77059 2.38751C2.13169 2.09617 2.5394 1.82753 2.99369 1.57402L3.00534 1.58159V1.56645C3.46352 1.30916 3.96829 1.07457 4.50801 0.862683C4.7604 0.764307 5.02055 0.673498 5.28458 0.58269C5.51755 0.503232 5.76217 0.431342 6.0068 0.359451C6.48827 0.223238 6.98916 0.10216 7.50946 0V0.58269V1.46051V2.89453V3.58695V4.58584V6.21283V6.41715V12.4143C6.99304 12.3159 6.49215 12.2024 6.0068 12.07V6.8712V5.21394V3.58695V3.25398V1.82753C5.46708 1.98644 4.96619 2.16806 4.50413 2.36481C4.43812 2.3913 4.37211 2.42157 4.3061 2.45184C3.81686 2.67508 3.37809 2.92102 3.00534 3.18209C2.99757 3.18587 2.98981 3.18966 2.98592 3.19723C2.04239 3.85937 1.50267 4.63881 1.50267 5.47123C1.50267 6.30743 2.05015 7.09065 3.00534 7.76037C3.42857 8.0555 3.93334 8.3317 4.50801 8.57765V10.076H4.50413ZM7.50946 16.8564C7.00081 16.7694 6.49992 16.671 6.0068 16.5575V18.0255C6.0068 20.8898 6.0068 18.5023 6.0068 21.3665L4.50413 20.3639L3.00146 19.365V15.6532V14.0981C3.48681 14.291 3.9877 14.4726 4.50413 14.6391V13.1181C4.98948 13.2846 5.49037 13.4321 6.0068 13.5646C6.49604 13.6894 6.99693 13.7954 7.50946 13.8937C7.99871 13.9808 8.4996 14.0602 9.01213 14.1208C9.97897 14.2343 10.9769 14.2948 12.0019 14.2948C13.0231 14.2948 14.0249 14.2343 14.9917 14.1208V15.5888C14.021 15.6986 13.0231 15.7591 12.0019 15.7591C10.9807 15.7591 9.98285 15.6986 9.01213 15.5888C8.50348 15.5321 8.00259 15.4602 7.50946 15.3732C6.99693 15.2786 6.49604 15.1802 6.0068 15.0591C5.49426 14.9343 4.99337 14.7943 4.50413 14.6391V13.1181C3.98382 12.9403 3.48293 12.7473 3.00146 12.5354C2.47339 12.3008 1.9725 12.0473 1.49879 11.7749V13.4094V15.0213V18.3661V19.9968L3.00146 20.9957L4.50413 21.9946L6.0068 22.9973L7.50946 24V22.373C7.50946 19.1758 7.50946 21.2265 7.50946 18.0293V16.8564Z" fill="#B2B2B2"/>
</svg>
